<svg width="72" height="72" viewBox="0 0 72 72" fill="#ffb71b;" xmlns="http://www.w3.org/2000/svg">
<path fill-rule="evenodd" clip-rule="evenodd" d="M7.125 0C3.18997 0 0 3.18997 0 7.125V40.875C0 44.81 3.18997 48 7.125 48H12.0001V19.1255C12.0001 15.1905 15.19 12.0005 19.1251 12.0005H48V7.125C48 3.18997 44.81 0 40.875 0H7.125ZM24 64.8745V60.0005H52.8751C56.8101 60.0005 60.0001 56.8105 60.0001 52.8755V23.9995H64.875C68.81 23.9995 72 27.1895 72 31.1245V64.8745C72 68.8096 68.81 71.9995 64.875 71.9995H31.125C27.19 71.9995 24 68.8096 24 64.8745ZM48.0001 40.875V23.9995H31.125C27.19 23.9995 24 27.1895 24 31.1245V48H40.8751C44.8101 48 48.0001 44.81 48.0001 40.875Z" fill="#FFB71B"/>
</svg>
