<svg width="22" height="24" viewBox="0 0 22 24" fill="#219653" xmlns="http://www.w3.org/2000/svg">
<path d="M20.2822 8.58468H19.7059V5.80404C19.7059 5.78671 19.7032 5.76924 19.7012 5.75151C19.7002 5.64121 19.6649 5.53278 19.5893 5.44686L14.9618 0.160951C14.9603 0.159594 14.959 0.159113 14.958 0.157668C14.9305 0.126852 14.8983 0.101202 14.8642 0.0790529C14.8542 0.072312 14.8441 0.0666653 14.8335 0.0607123C14.8041 0.0447354 14.7728 0.0312972 14.7407 0.0216236C14.7319 0.0193474 14.7241 0.0157581 14.7154 0.0134819C14.6804 0.00516514 14.6441 0 14.6074 0H3.23514C2.71587 0 2.29399 0.42236 2.29399 0.941194V8.58442H1.71777C0.97491 8.58442 0.372559 9.18655 0.372559 9.92968V16.925C0.372559 17.6674 0.97491 18.2702 1.71777 18.2702H2.29399V23.0588C2.29399 23.5777 2.71587 24 3.23514 24H18.7645C19.2834 24 19.7057 23.5777 19.7057 23.0588V18.2702H20.282C21.0246 18.2702 21.6271 17.6678 21.6271 16.9251V9.92994C21.6271 9.1866 21.0251 8.58468 20.2822 8.58468ZM3.23514 0.941194H14.1368V5.75642C14.1368 6.01643 14.3477 6.22701 14.6074 6.22701H18.7646V8.58464H3.23514V0.941194ZM12.7696 13.7735C11.8449 13.4513 11.2416 12.9398 11.2416 12.1301C11.2416 11.1803 12.0343 10.4537 13.3477 10.4537C13.975 10.4537 14.4378 10.5856 14.7678 10.7344L14.4872 11.75C14.2643 11.6429 13.868 11.4857 13.3229 11.4857C12.7779 11.4857 12.5137 11.7335 12.5137 12.0226C12.5137 12.3778 12.8275 12.5346 13.5458 12.8071C14.5283 13.1706 14.9909 13.6825 14.9909 14.4669C14.9909 15.4003 14.2723 16.1931 12.7446 16.1931C12.1088 16.1931 11.4812 16.0281 11.1674 15.8544L11.4232 14.814C11.7619 14.9872 12.2823 15.161 12.8188 15.161C13.3974 15.161 13.7025 14.9215 13.7025 14.558C13.7027 14.2114 13.4385 14.0129 12.7696 13.7735ZM10.6397 15.0533V16.1107H7.16244V10.544H8.42646V15.0533H10.6397ZM3.12483 16.1107H1.68796L3.29826 13.2938L1.74552 10.5438H3.19093L3.6779 11.5597C3.84309 11.8983 3.96706 12.1705 4.09934 12.4848H4.1154C4.2479 12.1296 4.35514 11.8819 4.49513 11.5597L4.96594 10.5438H6.40286L4.83371 13.2605L6.48568 16.1102H5.03235L4.52831 15.1025C4.32218 14.7149 4.18995 14.4256 4.03298 14.1035H4.01656C3.90079 14.4256 3.76072 14.7149 3.58711 15.1025L3.12483 16.1107ZM18.7646 22.804H3.23514V18.2702H18.7645V22.804H18.7646ZM18.7731 16.1107L18.2692 15.103C18.0628 14.715 17.9307 14.4261 17.7737 14.1039H17.7577C17.6419 14.4261 17.5013 14.715 17.3275 15.103L16.8657 16.1107H15.4284L17.0387 13.2938L15.486 10.5438H16.9314L17.419 11.5597C17.584 11.8983 17.7076 12.1705 17.84 12.4848H17.8565C17.9884 12.1296 18.0954 11.8819 18.236 11.5597L18.7067 10.5438H20.1439L18.5747 13.2605L20.2264 16.1102H18.7731V16.1107Z" fill="#219653"/>
</svg>
